<svg width="28" height="20" viewBox="0 0 28 20" fill="none" xmlns="http://www.w3.org/2000/svg">
<path d="M23.7361 1.67975C21.8939 0.882679 19.9483 0.317897 17.9495 0C17.6949 0.413343 17.4122 0.973679 17.2135 1.41341C15.088 1.12026 12.9285 1.12026 10.8029 1.41341C10.6043 0.973679 10.3056 0.413343 10.0656 0C8.0648 0.313325 6.11767 0.878287 4.27637 1.67975C0.613753 6.77304 -0.3769 11.747 0.119093 16.6531C2.26534 18.1376 4.6627 19.2692 7.20966 20C7.78155 19.272 8.28817 18.5005 8.72431 17.6933C7.88832 17.3993 7.09766 17.04 6.33234 16.6129C6.531 16.4797 6.72833 16.3327 6.91233 16.1857C11.5256 18.1733 16.5215 18.1733 21.0775 16.1857C21.2761 16.3327 21.4601 16.4797 21.6575 16.6129C20.8935 17.04 20.1015 17.3993 19.2668 17.6933C19.7025 18.5004 20.2087 19.272 20.7801 20C23.3281 19.2715 25.7258 18.1397 27.8707 16.6531C28.48 10.9743 26.9081 6.03932 23.7374 1.67975M9.35897 13.6265C7.97232 13.6265 6.84033 12.4392 6.84033 10.9869C6.84033 9.53452 7.94432 8.346 9.3603 8.346C10.7603 8.346 11.9069 9.53326 11.8776 10.9869C11.8776 12.4392 10.7603 13.6265 9.35897 13.6265ZM18.6575 13.6252C17.2709 13.6252 16.1375 12.438 16.1375 10.9856C16.1375 9.53326 17.2415 8.34475 18.6575 8.34475C20.0575 8.34475 21.2041 9.53201 21.1761 10.9856C21.1761 12.438 20.0722 13.624 18.6562 13.624" fill="white"/>
</svg>
