<svg width="32" height="32" viewBox="0 0 32 32" fill="none" xmlns="http://www.w3.org/2000/svg">
<path d="M2.5 4.44444H4V3H28V4.44444H29.5V8.77777H28V4.44444H4V8.77777H2.5V4.44444Z" fill="white"/>
<path d="M1 13.1111H2.5V18.8889H1V21.7777H7.02543L7 18.8889H5.5V13.1111H7V10.2222H1V13.1111Z" fill="white"/>
<path d="M17.5 13.1111H19V10.2222H11.5V13.1111H14.5V18.8889H11.5V16H8.5V20.3333H10V21.7777H16V20.3333H17.5V13.1111Z" fill="white"/>
<path d="M4 27.5556H2.5V23.2223H4V27.5556H28V23.2223H29.5V27.5556H28V29H4V27.5556Z" fill="white"/>
<path fill-rule="evenodd" clip-rule="evenodd" d="M28 10.2222V11.6667H29.5V13.1111H31V18.8889H29.5V20.3333H28V21.7777H20.5V10.2222H28ZM26.5 14.5556H28V17.4444H26.5V18.8889H23.5V13.1111H26.5V14.5556Z" fill="white"/>
</svg>
