<svg width="54" height="48" viewBox="0 0 54 48" fill="none" xmlns="http://www.w3.org/2000/svg">
<path d="M2.7 2.66666H5.4V0H48.6V2.66666H51.3V10.6667H48.6V2.66666H5.4V10.6667H2.7V2.66666Z" fill="white"/>
<path d="M0 18.6667H2.7V29.3334H0V34.6666H10.8458L10.8 29.3334H8.1V18.6667H10.8V13.3333H0V18.6667Z" fill="white"/>
<path d="M29.7 18.6667H32.4V13.3333H18.9V18.6667H24.3V29.3334H18.9V24H13.5V32H16.2V34.6666H27V32H29.7V18.6667Z" fill="white"/>
<path d="M5.4 45.3334H2.7V37.3334H5.4V45.3334H48.6V37.3334H51.3V45.3334H48.6V48H5.4V45.3334Z" fill="white"/>
<path fill-rule="evenodd" clip-rule="evenodd" d="M48.6 13.3333V16H51.3V18.6667H54V29.3334H51.3V32H48.6V34.6666H35.1V13.3333H48.6ZM45.9 21.3334H48.6V26.6666H45.9V29.3334H40.5V18.6667H45.9V21.3334Z" fill="white"/>
</svg>
