<svg width="26" height="20" viewBox="0 0 26 20" fill="none" xmlns="http://www.w3.org/2000/svg">
<path d="M0.00371424 3.91182C0.0508457 2.85881 0.511301 1.86424 1.28909 1.13546C2.06687 0.406679 3.10197 -7.3579e-05 4.17857 9.98346e-09H21.8214C22.898 -7.3579e-05 23.9331 0.406679 24.7109 1.13546C25.4887 1.86424 25.9492 2.85881 25.9963 3.91182L24.6257 4.65727L13 10.7855L1.37429 4.65727L0.00371424 3.91182ZM0 5.98909V15.9091C0 16.9941 0.440241 18.0346 1.22388 18.8018C2.00751 19.569 3.07035 20 4.17857 20H21.8214C22.9297 20 23.9925 19.569 24.7761 18.8018C25.5598 18.0346 26 16.9941 26 15.9091V5.98909L25.5116 6.25545L13.4401 12.6191C13.3049 12.6904 13.1536 12.7277 13 12.7277C12.8464 12.7277 12.6951 12.6904 12.5599 12.6191L0.477286 6.24909L0 5.98909Z" fill="white"/>
</svg>
